<!DOCTYPE svg PUBLIC "-//W3C//DTD SVG 1.1//EN" "http://www.w3.org/Graphics/SVG/1.1/DTD/svg11.dtd">
<!-- Uploaded to: SVG Repo, www.svgrepo.com, Transformed by: SVG Repo Mixer Tools -->
<svg width="800px" height="800px" viewBox="0 0 20 20" xmlns="http://www.w3.org/2000/svg" fill="#000000">
<g id="SVGRepo_bgCarrier" stroke-width="0"/>
<g id="SVGRepo_tracerCarrier" stroke-linecap="round" stroke-linejoin="round"/>
<g id="SVGRepo_iconCarrier"> <g id="add-user-3" transform="translate(-2 -2)"> <path id="secondary" fill="#336ecc" d="M14.84,13.61a6,6,0,0,1-7.68,0A7,7,0,0,0,3,20a1,1,0,0,0,1,1H18a1,1,0,0,0,1-1,7,7,0,0,0-4.16-6.39Z"/> <path id="primary" d="M17,5h4M19,3V7" fill="none" stroke="#000000" stroke-linecap="round" stroke-linejoin="round" stroke-width="0.28"/> <path id="primary-2" data-name="primary" d="M16.65,11A6,6,0,1,1,11,3a5.8,5.8,0,0,1,2,.35" fill="none" stroke="#000000" stroke-linecap="round" stroke-linejoin="round" stroke-width="0.28"/> <path id="primary-3" data-name="primary" d="M6.81,13.77A7,7,0,0,0,3,20a1,1,0,0,0,1,1H18a1,1,0,0,0,1-1,7,7,0,0,0-3.84-6.24" fill="none" stroke="#000000" stroke-linecap="round" stroke-linejoin="round" stroke-width="0.28"/> </g> </g>
</svg>