<?xml version="1.0" encoding="utf-8"?>
<!-- Uploaded to: SVG Repo, www.svgrepo.com, Generator: SVG Repo Mixer Tools -->
<svg width="800px" height="800px" viewBox="-3.5 0 63 63" xmlns="http://www.w3.org/2000/svg">
  <g id="Group_108" data-name="Group 108" transform="translate(-321 -735)">
    <path id="Path_157" data-name="Path 157" d="M376,792V760l-27-16-27,16v32" fill="#ffc2c2" stroke="#333" stroke-linecap="round" stroke-linejoin="round" stroke-width="2"/>
    <g id="Group_105" data-name="Group 105">
      <path id="Path_158" data-name="Path 158" d="M349,736a21,21,0,1,0,21,21A21,21,0,0,0,349,736Zm0,23.375A2.375,2.375,0,1,1,351.375,757,2.375,2.375,0,0,1,349,759.375Z" fill="#e8f7f9" stroke="#333" stroke-linecap="round" stroke-linejoin="round" stroke-width="2"/>
      <path id="Path_159" data-name="Path 159" d="M349,751.375A5.625,5.625,0,1,0,354.625,757,5.624,5.624,0,0,0,349,751.375Zm0,8A2.375,2.375,0,1,1,351.375,757,2.375,2.375,0,0,1,349,759.375Z" fill="#e8f7f9" stroke="#333" stroke-linecap="round" stroke-linejoin="round" stroke-width="2"/>
    </g>
    <g id="Group_107" data-name="Group 107">
      <path id="Path_160" data-name="Path 160" d="M376,797H322V760l27,15.626L376,760Z" fill="#ffc2c2" stroke="#333" stroke-linecap="round" stroke-linejoin="round" stroke-width="2"/>
      <g id="Group_106" data-name="Group 106">
        <path id="Path_161" data-name="Path 161" d="M367,787.188a1.813,1.813,0,1,1-1.813-1.813A1.812,1.812,0,0,1,367,787.188Z" fill="#333" stroke="#333" stroke-linecap="round" stroke-linejoin="round" stroke-width="2"/>
        <path id="Path_162" data-name="Path 162" d="M370,782.984,367,780v7" fill="none" stroke="#333" stroke-linecap="round" stroke-linejoin="round" stroke-width="2"/>
      </g>
    </g>
  </g>
</svg>