<?xml version="1.0" encoding="iso-8859-1"?>
<!-- Uploaded to: SVG Repo, www.svgrepo.com, Generator: SVG Repo Mixer Tools -->
<svg version="1.1" id="Layer_1" xmlns="http://www.w3.org/2000/svg" xmlns:xlink="http://www.w3.org/1999/xlink" 
	 viewBox="0 0 512 512" xml:space="preserve">
<rect x="14.207" y="264.889" style="fill:#7DF5A5;" width="85.668" height="117.478"/>
<polygon style="fill:#767B95;" points="86.64,447.441 86.64,382.374 27.438,382.374 27.438,447.441 57.04,486.185 "/>
<g>
	<path style="fill:#FFDC64;" d="M302.738,24.113c-27.408,0-49.628,22.22-49.628,49.628s22.22,49.628,49.628,49.628v71.319h49.628
		V73.742C352.366,46.333,330.146,24.113,302.738,24.113z"/>
	<path style="fill:#FFDC64;" d="M448.165,92.548c27.41,0,49.628,22.22,49.628,49.628s-22.22,49.628-49.628,49.628v71.319h-49.629
		V142.175C398.536,114.768,420.755,92.548,448.165,92.548z"/>
</g>
<path d="M218.832,186.138c0-48.523-39.477-88-88-88s-88,39.477-88,88v64.551H14.207C6.36,250.689,0,257.051,0,264.896v117.478
	c0,7.516,5.842,13.653,13.231,14.159v50.909c0,3.117,1.026,6.147,2.918,8.625l29.6,38.744c2.688,3.518,6.862,5.582,11.289,5.582
	s8.601-2.064,11.289-5.582l29.602-38.744c1.892-2.478,2.918-5.508,2.918-8.625v-50.911c7.389-0.504,13.231-6.643,13.231-14.159
	V264.895c0-7.845-6.36-14.207-14.207-14.207H71.245v-64.551c0-32.857,26.731-59.586,59.586-59.586s59.586,26.729,59.586,59.6
	l0.06,59.201c0.007,7.842,6.366,14.193,14.207,14.193c0.004,0,0.009,0,0.014,0c7.847-0.009,14.201-6.375,14.193-14.221
	L218.832,186.138z M72.433,442.636l-15.395,20.148l-15.393-20.148v-46.055h30.788V442.636z M85.664,368.167h-57.25v-89.064h57.25
	V368.167z"/>
<path d="M204.759,308.56h-0.014c-7.847,0-14.207-6.362-14.207-14.207s6.36-14.207,14.207-14.207c7.847,0,14.214,6.362,14.214,14.207
	S212.604,308.56,204.759,308.56z"/>
<path d="M448.165,78.343c-35.199,0-63.835,28.636-63.835,63.836L384.121,302.4c0,10.496-7.518,19.263-17.45,21.217l-0.095-249.873
	c0-35.199-28.637-63.836-63.836-63.836s-63.835,28.636-63.835,63.836c0,30.318,21.244,55.765,49.628,62.242v58.705
	c0,7.845,6.36,14.207,14.207,14.207h35.518v205.194c0,32.857-26.731,59.586-59.586,59.586s-59.586-26.729-59.586-59.601
	l-0.075-67.878c-0.009-7.842-6.368-14.191-14.207-14.191c-0.006,0-0.011,0-0.017,0c-7.845,0.009-14.2,6.376-14.191,14.223
	l0.075,67.864c0,48.523,39.477,88,88,88s88-39.477,88-88v-61.835c25.645-2.132,45.865-23.67,45.865-49.857v-25.067h35.631
	c7.847,0,14.207-6.362,14.207-14.207v-58.706C490.756,197.946,512,172.497,512,142.179C512,106.978,483.364,78.343,448.165,78.343z
	 M338.159,180.483h-21.214V123.37c0-7.845-6.36-14.207-14.207-14.207c-19.532,0-35.421-15.891-35.421-35.421
	c0-19.532,15.891-35.422,35.421-35.422c19.532,0,35.422,15.891,35.422,35.422v106.74H338.159z M448.165,177.6
	c-7.847,0-14.207,6.362-14.207,14.207v57.112h-21.214V142.178c0-19.532,15.891-35.422,35.421-35.422
	c19.53,0,35.421,15.891,35.421,35.422S467.695,177.6,448.165,177.6z"/>
</svg>